<?xml version="1.0" standalone="no"?>
<!DOCTYPE svg PUBLIC "-//W3C//DTD SVG 20010904//EN"
 "http://www.w3.org/TR/2001/REC-SVG-20010904/DTD/svg10.dtd">
<svg version="1.0" xmlns="http://www.w3.org/2000/svg"
 width="280.000000pt" height="280.000000pt" viewBox="0 0 280.000000 280.000000"
 preserveAspectRatio="xMidYMid meet">
<metadata>
Created by potrace 1.11, written by Peter Selinger 2001-2013
</metadata>
<g transform="translate(0.000000,280.000000) scale(0.100000,-0.100000)"
fill="#000000" stroke="none">
<path d="M1230 2783 c-83 -28 -161 -110 -175 -184 -12 -64 -12 -74 -3 -95 16
-34 39 -43 78 -30 30 9 36 17 43 51 20 92 58 131 134 137 43 3 96 -28 118 -68
17 -33 19 -59 20 -275 1 -213 3 -241 18 -257 14 -14 38 -17 129 -19 116 -3
140 -11 153 -54 13 -41 -63 -146 -143 -198 -236 -151 -552 5 -577 286 -9 105
28 98 -516 98 l-471 0 -19 -24 c-18 -21 -19 -42 -19 -276 0 -233 1 -255 19
-276 l19 -23 258 -1 259 0 0 -767 c0 -738 1 -767 19 -787 19 -21 19 -21 826
-21 807 0 807 0 826 21 18 20 19 49 19 785 0 420 2 765 5 765 3 1 119 2 259 3
252 2 253 2 272 25 18 21 19 43 19 276 0 234 -1 255 -19 276 l-19 24 -591 0
-591 -1 -1 31 c0 16 -1 111 -2 210 -3 198 -9 221 -77 299 -61 69 -180 99 -270
69z"/>
</g>
</svg>
