<?xml version="1.0" encoding="UTF-8"?>
<svg width="14px" height="14px" viewBox="0 0 14 14" version="1.1" xmlns="http://www.w3.org/2000/svg" xmlns:xlink="http://www.w3.org/1999/xlink">
    <title>add</title>
    <g id="Page-1" stroke="none" stroke-width="1" fill="none" fill-rule="evenodd">
        <g id="landing" transform="translate(-1371.000000, -149.000000)" fill="#5E4352" fill-rule="nonzero">
            <g id="Group" transform="translate(1355.000000, 137.000000)">
                <path d="M23,12 C22.4590909,12 22.0454545,12.4136364 22.0454545,12.9545455 L22.0454545,18.0454545 L16.9545455,18.0454545 C16.4136364,18.0454545 16,18.4590909 16,19 C16,19.5409091 16.4136364,19.9545455 16.9545455,19.9545455 L22.0454545,19.9545455 L22.0454545,25.0454545 C22.0454545,25.5863636 22.4590909,26 23,26 C23.5409091,26 23.9545455,25.5863636 23.9545455,25.0454545 L23.9545455,19.9545455 L29.0454545,19.9545455 C29.5863636,19.9545455 30,19.5409091 30,19 C30,18.4590909 29.5863636,18.0454545 29.0454545,18.0454545 L23.9545455,18.0454545 L23.9545455,12.9545455 C23.9545455,12.4136364 23.5409091,12 23,12 Z" id="add"></path>
            </g>
        </g>
    </g>
</svg>