<?xml version="1.0" encoding="UTF-8"?>
<svg width="17px" height="17px" viewBox="0 0 17 17" version="1.1" xmlns="http://www.w3.org/2000/svg" xmlns:xlink="http://www.w3.org/1999/xlink">
    <title>delete</title>
    <g id="Page-1" stroke="none" stroke-width="1" fill="none" fill-rule="evenodd">
        <g id="landing" transform="translate(-1279.000000, -143.000000)" fill="#5E4352" fill-rule="nonzero">
            <path d="M1280.66522,143.176471 C1280.29454,143.176471 1279.92994,143.322503 1279.66256,143.614187 C1279.07919,144.197555 1279.07919,145.120841 1279.66256,145.655596 L1285.15632,151.197784 L1279.61413,156.691548 C1279.03077,157.274917 1279.03077,158.198203 1279.61413,158.732958 C1279.90582,159.024642 1280.29454,159.170674 1280.63484,159.170674 C1280.97514,159.170674 1281.36386,159.024642 1281.65554,158.732958 L1287.19773,153.239193 L1292.6915,158.732958 C1292.98318,159.024642 1293.3719,159.170674 1293.7122,159.170674 C1294.0525,159.170674 1294.44122,159.024642 1294.73291,158.732958 C1295.31627,158.149589 1295.31627,157.226303 1294.73291,156.691548 L1289.23914,151.197784 L1294.73291,145.70402 C1295.31627,145.120652 1295.31608,144.197555 1294.78133,143.614187 C1294.19796,143.030819 1293.27467,143.030819 1292.73992,143.614187 L1287.19773,149.156375 L1281.70397,143.614187 C1281.41228,143.322503 1281.0359,143.176471 1280.66522,143.176471 Z" id="delete"></path>
        </g>
    </g>
</svg>