<?xml version="1.0" encoding="UTF-8"?>
<svg width="16px" height="19px" viewBox="0 0 16 19" version="1.1" xmlns="http://www.w3.org/2000/svg" xmlns:xlink="http://www.w3.org/1999/xlink">
    <title>edit</title>
    <g id="Page-1" stroke="none" stroke-width="1" fill="none" fill-rule="evenodd">
        <g id="landing" transform="translate(-1249.000000, -142.000000)" fill="#5E4352" fill-rule="nonzero">
            <path d="M1261.48078,142.001513 C1261.25239,141.993303 1261.02077,142.018423 1260.79174,142.079048 C1260.181,142.240714 1259.67797,142.635828 1259.3726,143.174716 L1258.726,144.342306 C1258.5823,144.593787 1258.67204,144.935363 1258.92352,145.079066 L1262.03125,146.875359 C1262.12106,146.929248 1262.21088,146.94693 1262.30069,146.94693 C1262.35458,146.94693 1262.3903,146.947 1262.44419,146.929037 C1262.58789,146.893111 1262.69581,146.803227 1262.76766,146.677486 L1263.43215,145.509896 C1263.73752,144.971008 1263.82747,144.342587 1263.66581,143.731847 C1263.50414,143.121108 1263.10903,142.618076 1262.57014,142.312706 C1262.23333,142.12185 1261.86144,142.015195 1261.48078,142.001513 Z M1258.02503,146.035803 C1257.85101,146.049135 1257.68401,146.143159 1257.5942,146.300335 L1252.16953,155.712977 C1251.5588,156.754826 1251.21764,157.922486 1251.14579,159.108039 L1251.00194,161.425327 C1250.98398,161.622919 1251.09176,161.820301 1251.27139,161.928078 C1251.3612,161.981967 1251.45102,162 1251.54083,162 C1251.64861,162 1251.75625,161.964074 1251.84606,161.910185 L1253.7862,160.634888 C1254.77416,159.97026 1255.61842,159.090006 1256.21119,158.048157 L1261.6541,148.635515 C1261.7978,148.384034 1261.70771,148.042809 1261.45623,147.899105 C1261.20474,147.755402 1258.58244,146.246516 1258.33096,146.102813 C1258.23665,146.048924 1258.12944,146.027804 1258.02503,146.035803 Z" id="edit" transform="translate(1257.372476, 152.000000) rotate(10.000000) translate(-1257.372476, -152.000000) "></path>
        </g>
    </g>
</svg>