<?xml version="1.0" encoding="UTF-8"?>
<svg width="40px" height="40px" viewBox="0 0 40 40" version="1.1" xmlns="http://www.w3.org/2000/svg" xmlns:xlink="http://www.w3.org/1999/xlink">
    <title>racking-up-icon</title>
    <g id="Page-1" stroke="none" stroke-width="1" fill="none" fill-rule="evenodd">
        <g id="landing" transform="translate(-442.000000, -135.000000)" fill="#5E4352" fill-rule="nonzero">
            <g id="Group-2" transform="translate(442.000000, 135.000000)">
                <path d="M0.952138153,17.4660637 L7.93448461,17.4660637 L7.93448461,39.0478618 C7.93448461,39.5874068 8.34707781,40 8.88662276,40 L31.1031797,40 C31.6427246,40 32.0553178,39.5874068 32.0553178,39.0478618 L32.0553178,17.4660637 L39.0376643,17.4660637 C39.5772092,17.4660637 39.9898024,17.0534705 39.9898024,16.5139256 L39.9898024,9.8489585 C39.9898024,9.30941355 39.5772092,8.89682035 39.0376643,8.89682035 L22.5339363,8.89682035 L22.5339363,3.91396401 C22.5339363,1.91447389 21.0105152,0.16888728 19.0110251,0.0101975878 C16.8211074,-0.148492104 14.9803069,1.56535657 14.9168311,3.72353638 C14.9168311,4.2313434 15.2342104,4.67567454 15.7420175,4.73915041 C16.3133003,4.80262629 16.8211074,4.35829515 16.8211074,3.8187502 C16.8211074,3.05703968 17.2019626,2.35880503 17.9001973,2.07316359 C19.2966666,1.50188069 20.62966,2.51749472 20.62966,3.8187502 L20.62966,9.8489585 C20.62966,10.3885035 21.0422532,10.8010967 21.5817981,10.8010967 L23.9938814,10.8010967 C24.6921161,10.8010967 25.1681852,11.5310692 24.8508058,12.165828 C23.9938814,13.9748905 22.153081,15.244408 19.9949012,15.244408 C17.011535,15.244408 14.5994517,12.8323247 14.5994517,9.8489585 C14.5994517,9.34115148 14.1551205,8.89682035 13.6473135,8.89682035 L0.952138153,8.89682035 C0.412593199,8.89682035 -3.90798505e-14,9.30941355 -3.90798505e-14,9.8489585 L-3.90798505e-14,16.5139256 C-3.90798505e-14,17.0534705 0.412593199,17.4660637 0.952138153,17.4660637 Z" id="racking-up-icon"></path>
            </g>
        </g>
    </g>
</svg>